<?xml version="1.0" encoding="utf-8"?>
<!-- Generator: Adobe Illustrator 19.2.1, SVG Export Plug-In . SVG Version: 6.00 Build 0)  -->
<svg version="1.1" id="Layer_1" xmlns="http://www.w3.org/2000/svg" xmlns:xlink="http://www.w3.org/1999/xlink" x="0px" y="0px"
	 viewBox="0 0 291.8 348.4" style="enable-background:new 0 0 291.8 348.4;" xml:space="preserve">
<style type="text/css">
	.st0{fill:none;stroke:#231F20;stroke-width:8;stroke-miterlimit:10;}
</style>
<g id="Layer_1_1_">
	<path class="st0" d="M183.8,28.3v77.9c0,2.2,0.7,4.4,2,6.3l100,142.4c1.3,1.8,2,4,2,6.3v32.6c0,1.9-0.3,3.8-0.9,5.6
		c-10.4,31.3-38,42.2-45.3,44.5c-1.1,0.4-2.2,0.5-3.4,0.5h-90.4H53.6c-1.1,0-2.3-0.2-3.4-0.5c-7.3-2.4-35-13.2-45.3-44.5
		c-0.6-1.8-0.9-3.7-0.9-5.6v-32.6c0-2.2,0.7-4.4,2-6.3l100-142.4c1.3-1.8,2-4,2-6.3V28.3C108,3.3,87.5,4,87.5,4h117
		c0,0-20.5-0.7-20.5,24.3"/>
</g>
</svg>
